# xmcd
#
# Track frame offsets:
#	150
#	15657
#	29045
#	43600
#	59532
#	72940
#	86187
#	100200
#	112737
#	126867
#	141972
#	160515
#
# Disc length: 2353 seconds
#
# Revision: 1
# Processed by: cddbd v1.4PL0 Copyright (c) Steve Scherf et al.
# Submitted via: audiograbber 1.81.02
#
DISCID=a2092f0c
DTITLE=La Onda - Otra Onda
DYEAR=2003
DGENRE=Latin
TTITLE0=Agarrame De La Cintura
TTITLE1=Asi, Asi
TTITLE2=Baby
TTITLE3=Mi Cucu ft Grupo Control
TTITLE4=Cumbianchera
TTITLE5=Cutiviri Cuta
TTITLE6=Esta Bueno
TTITLE7=Infiel
TTITLE8=Yo No Se
TTITLE9=Si Tu Tuvieras Corazon
TTITLE10=Poco A Poco
TTITLE11=Asi, Asi (Otra Onda Mix)
EXTD=
EXTT0=
EXTT1=
EXTT2=
EXTT3=
EXTT4=
EXTT5=
EXTT6=
EXTT7=
EXTT8=
EXTT9=
EXTT10=
EXTT11=
PLAYORDER=
